<?xml version="1.0" encoding="UTF-8"?>
<svg width="294px" height="433px" viewBox="0 0 294 433" version="1.1" xmlns="http://www.w3.org/2000/svg" xmlns:xlink="http://www.w3.org/1999/xlink" xmlns:sketch="http://www.bohemiancoding.com/sketch/ns">
    <!-- Generator: Sketch 3.1.1 (8761) - http://www.bohemiancoding.com/sketch -->
    <title>Slice 2</title>
    <desc>Created with Sketch.</desc>
    <defs></defs>
    <g id="Page-1" stroke="none" stroke-width="1" fill="none" fill-rule="evenodd" sketch:type="MSPage">
        <g id="noun_945748_cc" sketch:type="MSLayerGroup" transform="translate(4.000000, 9.000000)" fill="#CECECE">
            <g id="Group" transform="translate(0.122852, -0.424419)" sketch:type="MSShapeGroup">
                <path d="M143.490302,0.424418543 C72.4599046,0.424418543 14.6671533,58.2099262 14.6671533,129.232632 L14.6671533,207.168616 C5.27704341,226.249392 -0.122852452,247.638432 -0.122852452,270.315396 C-0.122852452,349.630001 64.1681638,413.912292 143.490302,413.912292 C222.814543,413.912292 287.104463,349.630001 287.104463,270.315396 C287.104463,247.638432 281.66563,226.249392 272.31336,207.168616 L272.31336,129.232632 C272.31336,58.2099262 214.521706,0.424418543 143.490302,0.424418543 L143.490302,0.424418543 Z M143.490302,49.3746362 C187.525334,49.3746362 223.358381,85.2031923 223.358381,129.232632 L223.358381,150.971881 C200.488411,135.677104 173.061722,126.718902 143.490302,126.718902 C113.957728,126.718902 86.4542622,135.639158 63.6232294,150.971881 L63.6232294,129.232632 C63.6232294,85.2031923 99.4562762,49.3746362 143.490302,49.3746362 L143.490302,49.3746362 Z M143.490302,216.706947 C158.711722,216.706947 170.92668,228.884616 170.92668,244.066133 C170.92668,252.887157 166.898626,260.622157 160.499805,265.657183 L167.451055,323.924137 L119.604133,323.924137 L126.629966,265.657183 C120.268986,260.584221 116.05493,252.887157 116.05493,244.066133 C116.05493,228.884616 128.269979,216.706947 143.490302,216.706947 L143.490302,216.706947 Z" id="Shape"></path>
            </g>
        </g>
    </g>
</svg>
